<svg xmlns="http://www.w3.org/2000/svg" viewBox="0 0 835.46 735.41"><path d="M218.43-.015L19.81 275.105l8.875 5.344 88.719-123.12-87.937 122.56 29.437-.344.75-1 .281 126.31-52.344 10.219-7.593.625 10.75 6.813 3.625 6.843 7.125-.562 31.562 5.406v188.03l-11.281.875-9.032-.5v78.25l501.97 34.562v-.687l130.03-37.406h85.375l68.97-20v-214.91l16.374-.407-39.625-251.59-194.88 26.47-36.03-138.12-.282.062-142.59 28.25-.312-42.25-13.656-9.938 16.594 11.22 1.25-6.188-17.844-14.844-32.563 7.625.375 9.094 3.812-.813v33.125l-132-93.625.219-.281-.938-.25L219.216.265l20.343 17.812-.562-.125-20.562-17.97zm27.156 23.406l89.406 78.375-89.531-78.188.125-.188z" fill-opacity=".996"/><path d="M564.92 98.774l-238.41 47.249 5.69 103.01 110.78-.511 87.95.703 2.094-74.932 22.585 15.715-3.472 57.643 51.898 1.022-39.12-149.9z" fill-opacity=".996" fill="#aad400"/><path d="M795.83 210.414l-216.96 29.467-7.113 228.75 263.7-6.605-39.628-251.61z" fill-opacity=".996" fill="#aad400"/><path d="M806.66 461.584l23.127-.723-38.305-230.55-48.423 5.782 63.6 225.49z" fill="#22280b"/><path d="M36.95 623.474l168.4-13.009 224.59 6.505 96.266-7.77 1.433 40.292-490.68-26.018z" opacity=".8" fill="#ff0"/><path d="M379.73 80.874l28.381-6v60.606H379.73V80.874z" fill-opacity=".996" fill="#222b00"/><path d="M421.76 84.834l-13.652-9.952v60.606h14.011l-.36-50.654z" fill-opacity=".996" fill="#aad400"/><path d="M537.59 105.774l21.914-.922 40.799 144.15-19.759-1.437-42.954-141.8zm-161.68-23.99l32.191-6.904v-9.807l-32.572 7.621.381 9.09z" fill-opacity=".996" fill="#222b00"/><path d="M235.53 26.656L51.84 272.186l7.781-1.188.781 336.53 202.5 8.125-.5-171.88 76.22-4v178.69l93.218 3.438-.718-407.28 17.906-2.094-213.5-185.87zm-1.813 96.531c8.223 0 15.61 3.875 16.625 19.125l-.187.031-1.781 58.156-34.72 6.344 2.095-57.375c0-13.172 8.597-26.281 17.969-26.281zm50.938 11.719l-.906 58.906-27.28 4.875 2-57.812 26.187-5.969zm-77.687 17.531l-1.625 56.562-24.375 4.5 1.968-55.125 24.031-5.937zm24.188 116.06l-1.782 83.344L189 355.122l3.032-80.78 39.125-5.845zm-85.594 13.969l-2.813 77.5-34.781 3.563 2.031-76.47 35.563-4.593zm79.25 166.91l-2.032 116.34-40.656-2.531 3.063-111.78 39.625-2.031zm-87.906 5.594l-3.532 108.81-36.594-.5L100.843 457l36.062-2.031z" fill-opacity=".996" fill="#668000"/><path d="M547.42 137.434l-58.75 106h-57.562v378.94l96.5-9.125v-176.56h51.625v-185.78l1.906.094-1.906-6.406v-1.157h-.344l-31.469-106zm-11.688 45.219l16.75 12v69.844l-16.75-12v-69.844z" fill-opacity=".996" fill="#aad400"/><path d="M515.89 413.624v283.72h234.22v-283.72H515.89zm192.06 49.469v119.91l-48.781-2v-115.91l48.781-2zm-117.34 11.219v148.31l-59.969-4v-142.31l59.969-2z" fill-opacity=".996" fill="#445016"/><path d="M780.11 292.494l-6.656 30.125 9.187 7.344 1.782 69.125-23.312-20.781-11 49.656v269.37l68.969-20v-236.41h.03l-.03-.062-38.97-148.38zm-6.625 186.84l9.656 4-.25 73.438-9.406-.219v-77.219z" fill-opacity=".996" fill="#aad400"/><path d="M795.83 210.414l-216.96 29.467-72.652 176.92 263.7-6.605 25.911-199.79z" fill-opacity=".996" fill="#cdde87"/><path d="M293.9 359.164l138.84-16.258 129.05 27.069L4.31 415.7l289.59-56.536z" fill-opacity=".996" fill="#222b00"/><path d="M424.68 86.094l-16.573-11.218v-9.807l17.821 14.861-1.248 6.165z" fill-opacity=".996" fill="#aad400"/><path d="M398.25 130.394l166.41-31.55-70.198 129.85-96.21-98.304z" fill-opacity=".996" fill="#445016"/><path d="M219.21.254l170.99 121.3 102.85 108.34-43.841-28-230-201.64z" fill-opacity=".996" fill="#aad400"/><path d="M167.06 453.674L13.64 427.449l150.54-41.722 2.886 67.947z" fill-opacity=".996" fill="#222b00"/><path d="M575.87 248.63l215.83-24.31m-219.42 42.444l217.85-20.24m-225.85 38.38l221.92-19.733m-229.92 37.873l228.02-19.23m-234.02 37.36l232.59-16.17m-240.59 34.31l237.67-13.64m-245.67 31.78l241.73-8.556m-247.73 26.696l243.76-1.443m-241.22 19.573l238.68-.427" opacity=".6" stroke="#000" fill="none"/><path d="M515.17 440.094l162.51-7.155-122.14-57.237-540.69 44.461 148.71 17.887 268.3-16.354 83.301 18.398z" fill="#bcd35f"/><path fill-opacity=".996" fill="#222b00" d="M53.08 421.434h20.322v204.24H53.08z"/><path d="M530.64 615.334l-14.75-4.875v38l19.75 1.031 133.88-29.373-78.91-2.314v4.812l-59.969-4v-3.28z" fill="#ff0"/><path fill-opacity=".996" fill="#222b00" d="M508.4 380.954h20.322v269.28H508.4z"/><path d="M14.37 429.344l540.31-42.391-.258-9.034 4.569-9.288L.001 415.692l10.741 6.826 3.629 6.826z" fill-opacity=".996" fill="#445016"/><path d="M558.72 368.654l131.46 59.379-1.365 6.382-.286 6.446-133.74-53.98-.254-9.082 4.191-9.145z" fill-opacity=".996" fill="#aad400"/><path d="M32.75 622.614l501.96 27.435v85.353L32.75 700.854v-78.24z" fill-opacity=".996" fill="#450"/><path d="M533.7 650.054l135.14-29.975-.508 76.208-134.13 38.612-.508-84.845zM220.76 13.327l27.162 6.864-189 259.35-29.46.36 191.3-266.58z" fill-opacity=".996" fill="#aad400"/><path d="M231.99 122.654c-10.353 0-20.825 13.997-21.344 26.906-.013.331-.031.67-.031 1l-.531 57 6.343-1.094v-.125l-2.78.5 2-57.28.093-.094c0-13.173 8.597-26.282 17.97-26.282 7.708 0 14.696 3.416 16.374 16.406-1.468-13.82-9.327-16.938-18.094-16.938z" opacity=".6" fill-opacity=".996" fill="#d45500"/><path d="M28.69 280.444l-8.89-5.335L218.45 0l232.43 202.97 44.2 28.451-4.064 8.13-47.757-30.484-222.53-195.1-192.04 266.47z" fill="#8a0"/></svg>